<svg width="81" height="32" fill="none" xmlns="http://www.w3.org/2000/svg"><path d="M16.865 23.5H.485V.085H5.7v18.9h11.165V23.5zm17.536-2.17c-1.796 1.703-4.071 2.555-6.825 2.555-2.753 0-5.04-.863-6.86-2.59-1.796-1.727-2.695-3.908-2.695-6.545 0-2.66.887-4.865 2.66-6.615 1.797-1.75 4.095-2.625 6.895-2.625 2.777 0 5.052.887 6.825 2.66 1.797 1.75 2.695 3.943 2.695 6.58 0 2.66-.898 4.853-2.695 6.58zm-6.825-1.785c1.354 0 2.474-.455 3.36-1.365.91-.933 1.365-2.088 1.365-3.465 0-1.377-.443-2.52-1.33-3.43-.886-.933-2.006-1.4-3.36-1.4-1.353 0-2.485.467-3.395 1.4-.91.91-1.365 2.053-1.365 3.43 0 1.377.455 2.532 1.365 3.465.91.91 2.03 1.365 3.36 1.365zM53.63 7.96V5.895h4.76V22.1c0 2.87-.898 5.087-2.695 6.65-1.773 1.587-4.246 2.38-7.42 2.38-2.543 0-4.981-.572-7.315-1.715v-4.34c2.194 1.237 4.492 1.855 6.895 1.855 1.797 0 3.197-.42 4.2-1.26 1.027-.817 1.54-2.03 1.54-3.64v-1.26c-1.446 1.633-3.371 2.45-5.775 2.45-2.426 0-4.433-.828-6.02-2.485-1.586-1.657-2.38-3.757-2.38-6.3 0-2.543.806-4.655 2.416-6.335 1.61-1.703 3.616-2.555 6.02-2.555 2.31 0 4.235.805 5.775 2.415zm-4.69 11.2c1.307 0 2.392-.432 3.255-1.295.887-.887 1.33-1.995 1.33-3.325s-.431-2.438-1.294-3.325c-.864-.887-1.949-1.33-3.255-1.33-1.33 0-2.439.443-3.325 1.33-.864.887-1.295 2.007-1.295 3.36 0 1.307.431 2.403 1.295 3.29.863.863 1.96 1.295 3.29 1.295zm29.007 2.17c-1.796 1.703-4.071 2.555-6.825 2.555-2.753 0-5.04-.863-6.86-2.59-1.796-1.727-2.695-3.908-2.695-6.545 0-2.66.887-4.865 2.66-6.615 1.797-1.75 4.095-2.625 6.895-2.625 2.777 0 5.052.887 6.825 2.66 1.797 1.75 2.695 3.943 2.695 6.58 0 2.66-.898 4.853-2.695 6.58zm-6.825-1.785c1.354 0 2.474-.455 3.36-1.365.91-.933 1.365-2.088 1.365-3.465 0-1.377-.443-2.52-1.33-3.43-.886-.933-2.006-1.4-3.36-1.4-1.353 0-2.485.467-3.395 1.4-.91.91-1.365 2.053-1.365 3.43 0 1.377.455 2.532 1.365 3.465.91.91 2.03 1.365 3.36 1.365z" fill="#fff"/></svg>