<svg viewBox="0 0 29 22" xmlns="http://www.w3.org/2000/svg" xmlns:xlink="http://www.w3.org/1999/xlink"><style>:root&gt;svg{display:none}:root&gt;svg:target{display:block}</style><svg fill="none" viewBox="0 0 10 6" id="sprite--arrow-down" xmlns="http://www.w3.org/2000/svg"><path d="M9 1L5 5 1 1" stroke="#000" stroke-width="2" stroke-linecap="round" stroke-linejoin="round"/></svg><svg fill="none" viewBox="0 0 8 12" id="sprite--arrow-left" xmlns="http://www.w3.org/2000/svg"><path d="M7 1L1 6l6 5" stroke="#fff" stroke-width="1.5" stroke-linecap="round" stroke-linejoin="round"/></svg><svg fill="none" viewBox="0 0 8 12" id="sprite--arrow-right" xmlns="http://www.w3.org/2000/svg"><path d="M1 1l6 5-6 5" stroke="#fff" stroke-width="1.5" stroke-linecap="round" stroke-linejoin="round"/></svg><svg fill="none" viewBox="0 0 12 13" id="sprite--link" xmlns="http://www.w3.org/2000/svg"><path d="M11.07 1.469H4m7.07 0v7.07m0-7.07L1 11.53" stroke="#E66A22" stroke-width="1.5" stroke-linecap="round" stroke-linejoin="round"/></svg><svg fill="none" viewBox="0 0 29 22" id="sprite--menu-btn" xmlns="http://www.w3.org/2000/svg"><path d="M2 20h14.286M2 11h25M12.714 2H27" stroke="#fff" stroke-width="2.4" stroke-linecap="round" stroke-linejoin="round"/></svg><svg fill="none" viewBox="0 0 19 15" id="sprite--telegram" xmlns="http://www.w3.org/2000/svg"><path fill-rule="evenodd" clip-rule="evenodd" d="M1.313 6.482C6.406 4.347 9.81 2.968 11.526 2.29 16.374.364 17.382.026 18.036 0c.136 0 .462.026.68.182.164.13.218.313.245.443.028.13.055.416.028.65-.273 2.63-1.39 9.06-1.989 12.001-.245 1.25-.735 1.666-1.198 1.718-1.008.078-1.797-.65-2.778-1.25-1.525-.963-2.397-1.561-3.895-2.498-1.716-1.094-.599-1.692.382-2.656.245-.26 4.739-4.139 4.82-4.503 0-.052.028-.208-.081-.286-.11-.078-.245-.052-.354-.026-.164.026-2.615 1.588-7.381 4.66-.708.468-1.335.676-1.907.676-.626 0-1.825-.338-2.723-.625-1.09-.338-1.961-.52-1.88-1.093.055-.286.49-.599 1.308-.911z" fill="#fff"/></svg><svg fill="none" viewBox="0 0 21 13" id="sprite--vk" xmlns="http://www.w3.org/2000/svg"><path fill-rule="evenodd" clip-rule="evenodd" d="M3.085 0H.788C.13 0 0 .322 0 .677c0 .635.779 3.78 3.627 7.941C5.525 11.46 8.2 13 10.634 13c1.46 0 1.64-.342 1.64-.931V9.92c0-.684.14-.82.602-.82.34 0 .924.177 2.287 1.547C16.721 12.272 16.978 13 17.854 13h2.297c.657 0 .985-.342.796-1.017-.207-.673-.951-1.65-1.938-2.807-.535-.66-1.339-1.37-1.582-1.725-.34-.456-.243-.66 0-1.065 0 0 2.799-4.11 3.091-5.506.146-.507 0-.88-.695-.88h-2.297c-.584 0-.854.322-1 .677 0 0-1.168 2.969-2.823 4.897-.535.558-.779.736-1.07.736-.147 0-.358-.178-.358-.685V.88c0-.609-.17-.88-.657-.88h-3.61a.564.564 0 00-.585.55c0 .578.828.71.913 2.334v3.527c0 .773-.134.913-.426.913-.779 0-2.673-2.981-3.797-6.393C3.893.268 3.673 0 3.085 0z" fill="#fff"/></svg><svg fill="#fff" viewBox="0 0 20 19" id="sprite--whatsapp" xmlns="http://www.w3.org/2000/svg"><path fill-rule="evenodd" clip-rule="evenodd" d="M17.086 2.761C15.206.981 12.706.001 10.042 0 4.552 0 .085 4.223.084 9.414a9.003 9.003 0 001.329 4.707L0 19l5.28-1.31a10.402 10.402 0 004.758 1.147h.004c5.488 0 9.956-4.224 9.958-9.415 0-2.516-1.034-4.881-2.914-6.66V2.76zm-7.044 14.486h-.003a8.632 8.632 0 01-4.213-1.091l-.302-.17-3.133.777.836-2.888-.197-.296a7.494 7.494 0 01-1.265-4.164C1.767 5.1 5.48 1.59 10.045 1.59c2.211 0 4.29.816 5.852 2.295 1.563 1.479 2.423 3.445 2.422 5.536-.002 4.315-3.715 7.825-8.277 7.825zm4.54-5.86c-.249-.119-1.472-.688-1.7-.766-.229-.079-.394-.118-.56.118-.166.235-.643.765-.788.922-.145.157-.29.177-.539.059-.249-.118-1.05-.366-2.001-1.168-.74-.624-1.24-1.394-1.384-1.63-.145-.235-.016-.362.109-.48.111-.105.248-.274.373-.411.125-.138.166-.236.249-.393.083-.157.041-.294-.02-.412-.063-.118-.56-1.276-.768-1.746-.202-.46-.407-.397-.56-.405a10.62 10.62 0 00-.477-.008.938.938 0 00-.663.295c-.229.235-.871.805-.871 1.962 0 1.158.891 2.277 1.016 2.434.124.157 1.754 2.533 4.25 3.552.594.242 1.057.387 1.419.496a3.593 3.593 0 001.567.093c.478-.067 1.472-.569 1.68-1.118.207-.55.207-1.021.145-1.12-.063-.097-.229-.156-.477-.274z"/></svg></svg>